<?xml version="1.0" standalone="no"?>
<!DOCTYPE svg PUBLIC "-//W3C//DTD SVG 20010904//EN"
 "http://www.w3.org/TR/2001/REC-SVG-20010904/DTD/svg10.dtd">
<svg version="1.0" xmlns="http://www.w3.org/2000/svg"
 width="146.000000pt" height="51.000000pt" viewBox="0 0 146.000000 51.000000"
 preserveAspectRatio="xMidYMid meet">
<metadata>
Created by potrace 1.13, written by Peter Selinger 2001-2015
</metadata>
<g transform="translate(0.000000,51.000000) scale(0.100000,-0.100000)"
fill="#000000" stroke="none">
<path d="M0 255 l0 -255 730 0 730 0 0 255 0 255 -730 0 -730 0 0 -255z m90
108 c0 -37 3 -44 12 -35 18 18 63 15 88 -6 15 -12 23 -32 26 -62 6 -53 -10
-88 -49 -110 -25 -14 -30 -13 -57 2 -17 9 -30 13 -30 8 0 -6 -11 -10 -25 -10
l-25 0 0 130 0 130 30 0 c29 0 30 -1 30 -47z m780 -83 l0 -130 -25 0 c-14 0
-25 5 -25 11 0 5 -10 3 -22 -5 -34 -24 -63 -19 -92 15 -36 42 -36 110 -1 144
26 27 73 33 93 13 9 -9 12 -2 12 35 0 46 1 47 30 47 l30 0 0 -130z m-459 31
c78 -78 -17 -211 -114 -159 -47 25 -65 80 -43 133 17 41 40 54 89 55 29 0 45
-7 68 -29z m205 11 c54 -43 55 -112 3 -156 -73 -62 -173 2 -155 98 13 66 101
100 152 58z m429 4 c16 -11 23 -11 47 3 25 14 30 15 55 1 27 -15 28 -20 31
-98 3 -82 3 -82 -22 -82 -25 0 -25 2 -24 65 3 72 -10 97 -40 79 -13 -8 -18
-28 -20 -78 -3 -62 -4 -66 -27 -66 -23 0 -24 3 -27 73 -3 66 -5 72 -25 75 -29
4 -43 -29 -43 -99 0 -42 -3 -49 -20 -49 -19 0 -20 7 -20 90 0 83 1 90 20 90
11 0 20 -5 20 -11 0 -5 10 -3 22 5 28 20 48 20 73 2z m314 0 c47 -25 63 -83
37 -135 -44 -85 -176 -49 -176 48 0 78 70 122 139 87z"/>
</g>
</svg>
